#!OML:ASF H:\Terrain\Patient Classification 1\Walking\liu\liu.ASF
:FULLY-SPECIFIED
:DEGREES
33
root 7.983750 15.714900 -32.153999 7.565720 -8.237650 -7.409000
lowerback -9.086122 1.770164 4.311813
upperback -1.135937 1.802097 4.068053
thorax 3.920136 0.925674 2.000295
lowerneck -22.592131 -4.978171 -12.854711
upperneck 17.943750 -6.384840 15.954841
head 10.254508 -2.119359 6.828294
rclavicle 0.000000 0.000000
rhumerus -48.826801 22.892981 -102.371719
rradius 66.823463
rwrist -32.888351
rhand -32.849083 -34.155663
rfingers 7.837522
rthumb -3.503478 -67.107262
lclavicle 0.000000 0.000000
lhumerus -47.461372 -9.179479 100.358612
lradius 28.175180
lwrist 3.257188
lhand -12.446280 -28.701752
lfingers 7.837522
lthumb 16.188921 3.701566
rfemur 21.181709 7.730811 33.869881
rtibia 0.000000
rfoot -11.330221 -0.524372
rtoes -34.353111
lfemur -45.103191 6.038494 -9.667878
ltibia 26.590851
lfoot -9.646825 12.430660
ltoes -16.268560
34
root 8.009290 15.724700 -31.983000 7.553060 -8.645110 -7.300170
lowerback -9.201600 1.781879 3.954929
upperback -1.073314 1.833634 4.210327
thorax 4.035361 0.936536 2.357355
lowerneck -22.762739 -4.962893 -12.995510
upperneck 17.973560 -6.296543 15.916890
head 10.284715 -2.084797 6.853748
rclavicle -0.000000 -0.000000
rhumerus -49.015011 23.045219 -102.410339
rradius 66.573433
rwrist -32.546799
rhand -32.954021 -34.307571
rfingers 7.837522
rthumb -3.604799 -67.257629
lclavicle -0.000000 -0.000000
lhumerus -47.595901 -8.780068 100.466087
lradius 27.907331
lwrist 2.762353
lhand -9.554567 -25.865070
lfingers 7.837522
lthumb 18.973570 6.314902
rfemur 21.796280 7.947357 33.458260
rtibia -0.000000
rfoot -10.709446 -0.315142
rtoes -33.713902
lfemur -45.365978 7.022125 -10.276728
ltibia 27.787100
lfoot -6.846202 12.260820
ltoes -18.660400
35
root 8.038840 15.724800 -31.815599 7.593140 -8.772540 -7.114770
lowerback -9.436901 1.711809 3.573614
upperback -0.976961 1.753092 4.293586
thorax 4.255152 0.891683 2.659162
lowerneck -22.879341 -4.954114 -13.126300
upperneck 17.706591 -6.223778 16.013691
head 10.210805 -2.047199 6.914171
rclavicle 0.000000 0.000000
rhumerus -49.080132 23.040932 -102.424408
rradius 66.326920
rwrist -32.101303
rhand -33.397541 -35.704350
rfingers 7.837522
rthumb -4.033150 -68.647369
lclavicle 0.000000 0.000000
lhumerus -47.822170 -8.620293 100.681465
lradius 27.953201
lwrist 2.526821
lhand -10.255355 -25.595020
lfingers 7.837522
lthumb 18.299051 6.642823
rfemur 22.448910 7.877463 32.960182
rtibia -0.000000
rfoot -10.451716 -0.048958
rtoes -34.193501
lfemur -45.820942 7.668849 -10.934914
ltibia 29.162981
lfoot -4.576396 11.654170
ltoes -14.171961
36
root 8.071800 15.696200 -31.653700 7.660070 -8.621840 -6.980280
lowerback -9.559276 1.589456 3.303806
upperback -0.995930 1.608519 4.327708
thorax 4.298481 0.815690 2.832577
lowerneck -23.058092 -4.983616 -12.876050
upperneck 17.624531 -6.255854 15.744081
head 10.201940 -2.067879 6.763922
rclavicle -0.000000 -0.000000
rhumerus -49.096630 23.010460 -102.615707
rradius 65.604553
rwrist -31.778009
rhand -33.770111 -36.334763
rfingers 7.837522
rthumb -4.392883 -69.271294
lclavicle -0.000000 -0.000000
lhumerus -48.157009 -8.884822 101.072182
lradius 28.005890
lwrist 2.691458
lhand -16.638821 -29.646980
lfingers 7.837522
lthumb 12.147301 3.011437
rfemur 23.142021 7.525045 32.543941
rtibia -0.000000
rfoot -9.813936 -0.041017
rtoes -26.798420
lfemur -46.433422 7.911640 -11.427350
ltibia 30.739830
lfoot -2.671636 10.941898
ltoes -7.898528
37
root 8.103810 15.677900 -31.486799 7.745200 -8.446920 -6.977220
lowerback -9.698843 1.461141 3.239929
upperback -1.036428 1.435753 4.374854
thorax 4.335485 0.728581 2.900392
lowerneck -23.279301 -5.008641 -12.675410
upperneck 17.723862 -6.297918 15.546741
head 10.268489 -2.086183 6.654231
rclavicle -0.000000 -0.000000
rhumerus -49.171432 23.047091 -102.843285
rradius 64.728516
rwrist -31.604210
rhand -33.038719 -33.127602
rfingers 7.837522
rthumb -3.686562 -66.076340
lclavicle -0.000000 -0.000000
lhumerus -48.394501 -8.995140 101.282501
lradius 27.920200
lwrist 2.737570
lhand -9.939216 -24.240702
lfingers 7.837522
lthumb 18.603310 7.971326
rfemur 23.766819 7.160956 32.293579
rtibia -0.000000
rfoot -9.170678 -1.169575
rtoes 3.979987
lfemur -47.053928 8.358988 -11.900460
ltibia 32.370361
lfoot -1.415843 10.356577
ltoes -7.636992
